<svg width="240" height="62" viewBox="0 0 240 62" fill="none" xmlns="http://www.w3.org/2000/svg">
<path fill-rule="evenodd" clip-rule="evenodd" d="M0.156677 59.498L0.155355 59.5018L0.156459 59.501L0.156183 59.5017L0.161477 59.498L46.2029 59.4023C50.8959 59.3943 55.1981 58.08 58.744 55.5711C58.8486 55.4972 58.9525 55.4221 59.0555 55.3462C59.2047 55.2454 59.3527 55.1427 59.4992 55.0379C63.0324 52.511 65.6851 48.8779 67.2315 44.4471L82.4252 0.97887L82.4337 0.973012L82.4271 0.973024L82.4289 0.96875L82.4228 0.97303L82.4198 0.973036L82.4204 0.971622L82.4186 0.973042L36.3746 1.0687C31.6816 1.0767 27.3794 2.39095 23.8335 4.89983C23.704 4.99145 23.5757 5.08454 23.4485 5.17913C23.3264 5.26248 23.2051 5.34721 23.0847 5.43331C19.5515 7.96017 16.899 11.5932 15.3521 16.024L0.160037 59.4883L0.146484 59.498H0.156677ZM20.5333 27.2329C22.7902 26.478 25.2203 26.0895 27.7654 26.0852L64.1345 26.0096L69.7893 9.59495L69.7947 9.59078L69.7905 9.59084L69.7917 9.58775L69.7875 9.59084H69.7856V9.58981L69.7844 9.59084L37.6189 9.66441C34.3404 9.6707 31.3349 10.6032 28.8574 12.3828C28.7669 12.4478 28.6773 12.5138 28.5885 12.5809C28.5031 12.64 28.4184 12.7001 28.3342 12.7612C25.8657 14.5535 24.0122 17.1302 22.9311 20.2725L20.5333 27.2329ZM61.1728 34.6073L29.0096 34.6809C25.7311 34.6872 22.7255 35.6197 20.2481 37.3993C20.1576 37.4643 20.0679 37.5303 19.9791 37.5974C19.8938 37.6565 19.809 37.7166 19.7249 37.7777C17.2564 39.57 15.4029 42.1467 14.3217 45.2889L12.3187 51.1034L44.4775 51.0298C47.756 51.0235 50.7616 50.091 53.239 48.3114C53.3121 48.2589 53.3846 48.2057 53.4567 48.1519C53.5609 48.0804 53.6643 48.0075 53.7666 47.9332C56.2352 46.1408 58.0887 43.5641 59.1698 40.4219L61.1728 34.6073Z" fill="white"/>
<path d="M94.6129 29.1876C94.6129 26.2007 95.7138 23.882 97.9143 22.2314C100.115 20.5807 103.181 19.7554 107.111 19.7554C111.12 19.7554 114.185 20.6004 116.307 22.2903C118.468 23.9802 119.589 26.3579 119.667 29.4234H112.121C112.082 28.2837 111.611 27.3798 110.707 26.7116C109.842 26.0042 108.663 25.6505 107.17 25.6505C105.519 25.6505 104.261 25.9453 103.397 26.5348C102.532 27.085 102.1 27.8906 102.1 28.9518C102.1 30.0522 102.552 30.8775 103.456 31.4277C104.36 31.9387 105.48 32.3513 106.816 32.6657C108.191 32.9801 109.665 33.2945 111.238 33.6089C112.809 33.8841 114.263 34.336 115.6 34.9648C116.975 35.5543 118.115 36.4189 119.019 37.5587C119.923 38.6591 120.375 40.1918 120.375 42.1569C120.375 45.1045 119.274 47.4232 117.074 49.1131C114.912 50.7637 111.689 51.589 107.405 51.589C103.004 51.589 99.6632 50.7048 97.3841 48.9362C95.1044 47.1677 93.9648 44.79 93.9648 41.8031H101.511C101.864 44.397 103.868 45.6939 107.523 45.6939C111.021 45.6939 112.77 44.6328 112.77 42.5106C112.77 41.4494 112.318 40.6634 111.414 40.1525C110.51 39.6416 109.39 39.2486 108.054 38.9735C106.717 38.6591 105.264 38.3643 103.692 38.0893C102.119 37.8141 100.665 37.3622 99.3295 36.7333C97.9928 36.1045 96.8726 35.2203 95.9689 34.0805C95.0651 32.9015 94.6129 31.2705 94.6129 29.1876Z" fill="white"/>
<path d="M154.88 51.1174H147.452V47.0498C146.509 48.5039 145.251 49.6437 143.679 50.469C142.107 51.255 140.142 51.648 137.784 51.648C135.622 51.648 133.618 51.255 131.771 50.469C129.963 49.6437 128.391 48.5236 127.055 47.1088C125.719 45.6546 124.677 43.9647 123.931 42.039C123.223 40.0739 122.869 37.9713 122.869 35.7311C122.869 33.4518 123.223 31.3491 123.931 29.4234C124.677 27.4583 125.719 25.7684 127.055 24.3536C128.391 22.8994 129.963 21.7794 131.771 20.9934C133.618 20.168 135.642 19.7554 137.843 19.7554C140.201 19.7554 142.147 20.168 143.679 20.9934C145.251 21.7794 146.509 22.8994 147.452 24.3536V20.3449H154.88V51.1174ZM147.452 34.3164C147.177 32.2727 146.292 30.5631 144.799 29.1876C143.306 27.7728 141.4 27.0653 139.081 27.0653C137.784 27.0653 136.605 27.3012 135.544 27.7728C134.483 28.2444 133.579 28.8732 132.832 29.6592C132.125 30.4452 131.574 31.3688 131.181 32.4299C130.789 33.491 130.592 34.6111 130.592 35.7902C130.592 36.9299 130.789 38.0106 131.181 39.0324C131.574 40.0543 132.125 40.9582 132.832 41.7442C133.579 42.5302 134.483 43.1591 135.544 43.6307C136.605 44.1023 137.784 44.3381 139.081 44.3381C140.22 44.3381 141.282 44.1612 142.264 43.8075C143.247 43.4145 144.092 42.9036 144.799 42.2747C145.546 41.6067 146.135 40.8403 146.567 39.9756C147.04 39.0717 147.334 38.1285 147.452 37.146V34.3164Z" fill="white"/>
<path d="M160.637 13.2729L168.064 8.67285V51.1177H160.637V13.2729Z" fill="white"/>
<path d="M203.96 51.1174H196.532V47.0498C195.589 48.5039 194.331 49.6437 192.759 50.469C191.187 51.255 189.222 51.648 186.864 51.648C184.702 51.648 182.698 51.255 180.851 50.469C179.043 49.6437 177.471 48.5236 176.135 47.1088C174.799 45.6546 173.757 43.9647 173.011 42.039C172.303 40.0739 171.949 37.9713 171.949 35.7311C171.949 33.4518 172.303 31.3491 173.011 29.4234C173.757 27.4583 174.799 25.7684 176.135 24.3536C177.471 22.8994 179.043 21.7794 180.851 20.9934C182.698 20.168 184.722 19.7554 186.923 19.7554C189.281 19.7554 191.227 20.168 192.759 20.9934C194.331 21.7794 195.589 22.8994 196.532 24.3536V20.3449H203.96V51.1174ZM196.532 34.3164C196.257 32.2727 195.372 30.5631 193.879 29.1876C192.386 27.7728 190.48 27.0653 188.161 27.0653C186.864 27.0653 185.685 27.3012 184.624 27.7728C183.563 28.2444 182.659 28.8732 181.912 29.6592C181.205 30.4452 180.655 31.3688 180.262 32.4299C179.869 33.491 179.672 34.6111 179.672 35.7902C179.672 36.9299 179.869 38.0106 180.262 39.0324C180.655 40.0543 181.205 40.9582 181.912 41.7442C182.659 42.5302 183.563 43.1591 184.624 43.6307C185.685 44.1023 186.864 44.3381 188.161 44.3381C189.301 44.3381 190.362 44.1612 191.344 43.8075C192.327 43.4145 193.172 42.9036 193.879 42.2747C194.626 41.6067 195.215 40.8403 195.648 39.9756C196.119 39.0717 196.414 38.1285 196.532 37.146V34.3164Z" fill="white"/>
<path d="M207.832 35.7314C207.832 33.452 208.186 31.3494 208.893 29.4237C209.64 27.4586 210.681 25.7687 212.018 24.3539C213.354 22.8997 214.926 21.7797 216.734 20.9937C218.581 20.1683 220.605 19.7557 222.806 19.7557C225.163 19.7557 227.109 20.1683 228.642 20.9937C230.174 21.7797 231.432 22.8997 232.415 24.3539V13.2729L239.843 8.67285V51.1177H232.415V47.1091C231.432 48.5239 230.155 49.6439 228.583 50.4692C227.05 51.2553 225.105 51.6483 222.746 51.6483C220.585 51.6483 218.581 51.2553 216.734 50.4692C214.926 49.6439 213.354 48.5239 212.018 47.1091C210.681 45.6549 209.64 43.965 208.893 42.0393C208.186 40.0742 207.832 37.9716 207.832 35.7314ZM232.415 34.1398C232.1 32.0175 231.177 30.308 229.644 29.011C228.111 27.7141 226.244 27.0656 224.044 27.0656C222.746 27.0656 221.568 27.3014 220.507 27.773C219.446 28.2446 218.541 28.8735 217.795 29.6595C217.087 30.4455 216.537 31.3691 216.144 32.4302C215.751 33.4913 215.555 34.6114 215.555 35.7904C215.555 36.9302 215.751 38.0109 216.144 39.0327C216.537 40.0546 217.087 40.9585 217.795 41.7445C218.541 42.5305 219.446 43.1593 220.507 43.6309C221.568 44.1025 222.746 44.3384 224.044 44.3384C225.183 44.3384 226.225 44.1615 227.168 43.8078C228.15 43.4541 228.996 42.9628 229.703 42.334C230.449 41.7052 231.039 40.9781 231.472 40.1528C231.943 39.2882 232.258 38.3646 232.415 37.3821V34.1398Z" fill="white"/>
</svg>
